<svg xmlns="http://www.w3.org/2000/svg" xml:space="preserve" version="1.1" style="shape-rendering:geometricPrecision; text-rendering:geometricPrecision; image-rendering:optimizeQuality; fill-rule:evenodd; clip-rule:evenodd" xmlns:xlink="http://www.w3.org/1999/xlink" viewBox="6083 6392.69 11025 1881.31">
 <defs>
  <style type="text/css">
   <![CDATA[
    .str0 {stroke:#2B2A29;stroke-width:52.91}
    .fil1 {fill:black}
    .fil0 {fill:#3386BD}
    .fil2 {fill:#2B2A29;fill-rule:nonzero}
    .fil3 {fill:#727271;fill-rule:nonzero}
   ]]>
  </style>
 </defs>
 <g id="Layer_x0020_1">
  <metadata id="CorelCorpID_0Corel-Layer"/>
  <g id="_499850824">
   <path class="fil0" d="M7689 6468c-106,13 -182,32 -272,70 -74,31 -117,59 -121,79 -2,9 3,22 51,117 46,91 64,123 77,139 7,8 9,9 20,9 13,-1 15,-2 78,-40 288,-177 570,-58 746,204 20,30 31,42 42,45 15,4 173,6 246,3 60,-2 67,-3 75,-8 8,-5 9,-6 9,-16 0,-15 -6,-29 -30,-79 -22,-45 -55,-100 -84,-141 -191,-269 -504,-420 -836,-380l0 0z"/>
   <path class="fil1" d="M6915 6490c-8,10 -117,228 -117,234 0,1 -37,77 -82,169 -45,93 -85,175 -88,182 -8,17 -83,171 -128,264 -19,38 -41,84 -50,103 -15,32 -29,60 -92,191 -71,146 -82,169 -82,170 0,2 -30,66 -85,179 -43,88 -81,168 -95,199 -10,23 -12,31 -13,43l0 15 527 1c525,1 528,1 533,-5 9,-9 7,-18 -12,-59 -4,-8 -13,-27 -20,-43 -43,-95 -84,-174 -98,-190 -7,-8 -38,-11 -82,-13 -37,-1 -358,0 -366,-8 -1,-1 1,-8 4,-15 31,-71 348,-710 357,-720 2,-2 4,-2 7,0 6,3 68,125 316,618 192,382 203,405 215,424l6 10 154 -1c156,-1 165,-2 171,-10 3,-4 0,-16 -8,-32 -27,-59 -92,-194 -218,-449 -161,-327 -197,-401 -239,-486 -325,-664 -372,-759 -387,-775 -9,-9 -16,-9 -26,3l0 0z"/>
   <path class="fil0" d="M7839 7368c-178,2 -171,1 -171,13 0,9 11,40 25,71 41,90 106,220 114,229 15,18 3,17 212,19 198,2 264,3 266,6 3,3 -16,32 -32,51 -23,27 -80,82 -101,98 -3,2 -10,8 -16,13 -19,15 -63,41 -109,66 -46,24 -64,36 -64,43 0,8 11,33 41,94 28,57 36,72 63,120 17,31 29,47 36,49 15,4 47,-9 120,-47 302,-158 466,-470 473,-805 0,0 0,0 0,-1 0,0 0,-1 -1,-1 -10,-14 -13,-13 -32,-16 -27,-3 -607,-5 -822,-3l0 0z"/>
  </g>
  <path class="fil2 str0" d="M10305 7356l-371 0 -71 211 -225 0 383 -1028 196 0 385 1028 -225 0 -71 -211zm-314 -172l257 0 -129 -385 -128 385zm1483 253c-38,46 -92,81 -162,107 -70,25 -147,38 -231,38 -89,0 -167,-20 -234,-58 -67,-39 -119,-95 -155,-169 -37,-74 -55,-161 -56,-261l0 -70c0,-103 17,-192 52,-267 35,-75 85,-133 150,-172 65,-40 142,-60 229,-60 122,0 217,29 286,87 69,58 109,143 122,254l-206 0c-9,-59 -30,-102 -62,-129 -32,-27 -77,-41 -133,-41 -72,0 -127,27 -164,81 -38,54 -57,135 -57,242l0 66c0,108 20,189 61,245 41,55 101,83 180,83 80,0 136,-17 170,-51l0 -178 -193 0 0 -156 405 0 0 411z"/>
  <path class="fil2" d="M12165 7109c-116,-34 -201,-75 -254,-123 -53,-49 -80,-109 -80,-181 0,-81 33,-148 97,-201 65,-53 149,-80 252,-80 71,0 134,14 189,41 55,27 98,65 128,113 30,48 46,101 46,157l-136 0c0,-62 -20,-111 -59,-147 -40,-35 -95,-53 -168,-53 -67,0 -119,15 -156,44 -38,30 -56,70 -56,123 0,42 18,78 53,107 35,29 96,55 182,80 85,24 152,51 201,80 48,29 84,63 107,101 23,39 35,84 35,136 0,83 -33,150 -97,200 -65,50 -152,75 -261,75 -71,0 -137,-14 -198,-40 -61,-27 -108,-64 -142,-111 -33,-47 -50,-101 -50,-160l136 0c0,62 23,111 69,147 46,36 107,54 184,54 72,0 126,-15 164,-44 38,-29 57,-69 57,-119 0,-50 -18,-89 -53,-117 -35,-27 -99,-55 -192,-81zm427 69c0,-75 15,-142 44,-202 29,-60 70,-106 123,-139 52,-33 112,-49 180,-49 104,0 188,36 253,108 64,72 96,168 96,288l0 9c0,74 -14,141 -43,200 -28,59 -69,105 -122,138 -53,33 -114,49 -182,49 -104,0 -188,-36 -252,-108 -64,-72 -96,-168 -96,-286l0 -9zm131 15c0,85 20,153 59,204 39,51 92,77 158,77 66,0 119,-26 158,-78 39,-52 59,-125 59,-219 0,-84 -20,-152 -60,-204 -40,-52 -93,-78 -159,-78 -64,0 -116,26 -156,77 -40,51 -59,125 -59,221zm797 374l-131 0 0 -1085 131 0 0 1085zm607 -75c-51,60 -125,90 -224,90 -81,0 -143,-24 -186,-71 -43,-47 -64,-117 -65,-210l0 -497 131 0 0 493c0,116 47,174 141,174 100,0 166,-37 199,-111l0 -555 131 0 0 764 -124 0 -3 -75zm430 -874l0 185 142 0 0 101 -142 0 0 474c0,31 6,54 19,69 13,15 34,23 65,23 15,0 36,-3 62,-8l0 106c-34,9 -68,14 -100,14 -58,0 -102,-18 -132,-53 -30,-35 -44,-85 -44,-150l0 -474 -139 0 0 -101 139 0 0 -185 131 0zm364 949l-131 0 0 -764 131 0 0 764zm-141 -967c0,-21 7,-39 19,-54 13,-15 32,-22 58,-22 26,0 45,7 58,22 13,15 20,33 20,54 0,21 -7,39 -20,53 -13,14 -32,21 -58,21 -25,0 -45,-7 -58,-21 -13,-14 -19,-32 -19,-53zm242 578c0,-75 15,-142 44,-202 29,-60 70,-106 123,-139 52,-33 112,-49 180,-49 104,0 188,36 253,108 64,72 96,168 96,288l0 9c0,74 -14,141 -43,200 -28,59 -69,105 -122,138 -53,33 -114,49 -182,49 -104,0 -188,-36 -252,-108 -64,-72 -96,-168 -96,-286l0 -9zm131 15c0,85 20,153 59,204 39,51 92,77 158,77 66,0 119,-26 158,-78 39,-52 59,-125 59,-219 0,-84 -20,-152 -60,-204 -40,-52 -93,-78 -159,-78 -64,0 -116,26 -156,77 -40,51 -59,125 -59,221zm779 -390l4 96c58,-74 135,-110 229,-110 162,0 243,91 244,273l0 505 -131 0 0 -505c0,-55 -13,-96 -38,-122 -25,-26 -63,-40 -115,-40 -42,0 -80,11 -112,34 -32,23 -57,52 -75,89l0 544 -131 0 0 -764 124 0zm1046 561c0,-35 -13,-63 -40,-82 -27,-20 -73,-36 -139,-51 -66,-14 -119,-31 -157,-51 -39,-20 -68,-43 -86,-71 -19,-27 -28,-60 -28,-97 0,-63 27,-116 79,-159 53,-43 121,-65 203,-65 87,0 157,22 211,67 54,45 81,102 81,172l-131 0c0,-36 -15,-67 -46,-93 -30,-26 -69,-39 -115,-39 -48,0 -85,10 -112,31 -27,21 -40,48 -40,81 0,32 13,55 37,71 25,16 70,31 135,46 65,15 118,32 159,52 41,20 70,45 90,73 20,28 29,63 29,104 0,68 -27,123 -82,164 -54,41 -125,62 -213,62 -61,0 -115,-11 -162,-33 -47,-22 -84,-52 -110,-91 -27,-39 -40,-81 -40,-126l131 0c2,44 20,78 53,104 33,26 76,38 129,38 49,0 89,-10 119,-30 30,-20 45,-47 45,-80z"/>
  <path class="fil3" d="M11014 8104l35 -3c2,14 5,25 11,34 6,9 15,16 28,22 13,6 27,8 43,8 14,0 26,-2 37,-6 11,-4 19,-10 24,-17 5,-7 8,-15 8,-24 0,-9 -3,-16 -8,-23 -5,-6 -13,-12 -25,-16 -7,-3 -24,-7 -49,-14 -26,-6 -43,-12 -54,-17 -13,-7 -23,-16 -30,-26 -7,-10 -10,-22 -10,-35 0,-14 4,-27 12,-39 8,-12 20,-21 35,-28 15,-6 32,-10 51,-10 21,0 39,3 54,10 16,7 28,16 36,29 8,13 13,27 14,44l-35 3c-2,-18 -8,-31 -19,-40 -11,-9 -27,-13 -48,-13 -22,0 -38,4 -49,12 -10,8 -15,18 -15,29 0,10 4,18 11,25 7,6 26,13 55,20 30,7 50,13 62,18 16,7 28,17 36,28 8,11 12,25 12,39 0,15 -4,29 -13,42 -8,13 -21,23 -36,30 -16,7 -34,11 -53,11 -25,0 -46,-4 -63,-11 -17,-7 -30,-18 -40,-33 -10,-15 -15,-31 -15,-50zm352 -150l0 -39 34 0 0 39 -34 0zm0 239l0 -201 34 0 0 201 -34 0zm172 0l0 -201 31 0 0 29c15,-22 36,-33 64,-33 12,0 23,2 33,7 10,4 18,10 23,17 5,7 9,15 11,25 1,6 2,17 2,33l0 124 -34 0 0 -122c0,-14 -1,-24 -4,-31 -3,-7 -7,-12 -14,-16 -7,-4 -15,-6 -24,-6 -14,0 -27,5 -38,14 -11,9 -16,27 -16,52l0 110 -34 0zm295 17l33 5c1,10 5,18 12,22 8,6 20,9 35,9 16,0 28,-3 37,-9 9,-6 14,-15 17,-26 2,-7 3,-21 2,-44 -15,18 -34,26 -56,26 -28,0 -49,-10 -64,-30 -15,-20 -23,-44 -23,-72 0,-19 4,-37 10,-53 7,-16 17,-29 30,-38 13,-9 29,-13 47,-13 24,0 43,10 59,29l0 -25 31 0 0 174c0,31 -3,54 -10,67 -6,13 -16,23 -30,31 -14,8 -31,11 -51,11 -24,0 -43,-5 -58,-16 -15,-11 -22,-27 -21,-49zm28 -121c0,26 5,46 16,58 11,12 24,18 39,18 16,0 29,-6 40,-18 11,-12 16,-31 16,-57 0,-25 -6,-43 -16,-56 -11,-12 -24,-19 -40,-19 -15,0 -28,6 -39,18 -11,12 -16,31 -16,55zm279 104l0 -278 34 0 0 278 -34 0zm310 -65l35 5c-5,21 -16,36 -31,48 -15,11 -34,17 -58,17 -29,0 -53,-9 -70,-27 -17,-18 -26,-43 -26,-76 0,-34 9,-60 26,-79 17,-19 40,-28 68,-28 27,0 49,9 66,27 17,18 26,44 26,77 0,2 0,5 0,9l-150 0c1,22 8,39 19,51 11,12 25,18 42,18 12,0 23,-3 32,-10 9,-7 16,-17 21,-32zm-112 -55l112 0c-1,-17 -6,-30 -13,-38 -11,-13 -25,-20 -42,-20 -16,0 -29,5 -39,16 -11,10 -16,25 -18,42zm586 22l37 9c-8,30 -22,53 -42,69 -20,16 -44,24 -73,24 -30,0 -54,-6 -73,-18 -19,-12 -33,-30 -43,-53 -10,-23 -15,-48 -15,-74 0,-29 6,-54 17,-76 11,-22 27,-38 47,-49 20,-11 43,-17 67,-17 28,0 51,7 70,21 19,14 32,34 40,60l-36 9c-6,-20 -16,-35 -28,-44 -12,-9 -28,-14 -46,-14 -21,0 -39,5 -53,15 -14,10 -24,24 -30,41 -6,17 -9,35 -9,53 0,24 3,44 10,62 7,18 18,31 32,40 14,9 30,13 47,13 21,0 38,-6 52,-18 14,-12 24,-29 29,-53zm163 97l0 -278 34 0 0 278 -34 0zm172 -239l0 -39 34 0 0 39 -34 0zm0 239l0 -201 34 0 0 201 -34 0zm303 -74l33 5c-4,23 -13,41 -28,54 -15,13 -34,19 -56,19 -27,0 -50,-9 -66,-27 -17,-18 -25,-44 -25,-77 0,-22 4,-41 11,-57 7,-16 18,-28 33,-37 15,-8 31,-12 48,-12 22,0 40,6 54,17 14,11 23,27 27,47l-33 5c-3,-14 -9,-24 -17,-31 -8,-7 -18,-10 -29,-10 -17,0 -31,6 -42,18 -11,12 -16,32 -16,58 0,27 5,47 16,59 10,12 24,18 41,18 13,0 25,-4 34,-12 9,-8 15,-21 17,-38zm148 74l0 -278 34 0 0 158 81 -82 44 0 -77 75 85 127 -42 0 -67 -103 -24 23 0 80 -34 0zm379 -89l35 -3c2,14 5,25 11,34 6,9 15,16 28,22 13,6 27,8 43,8 14,0 26,-2 37,-6 11,-4 19,-10 24,-17 5,-7 8,-15 8,-24 0,-9 -3,-16 -8,-23 -5,-6 -13,-12 -25,-16 -7,-3 -24,-7 -49,-14 -26,-6 -43,-12 -54,-17 -13,-7 -23,-16 -30,-26 -7,-10 -10,-22 -10,-35 0,-14 4,-27 12,-39 8,-12 20,-21 35,-28 15,-6 32,-10 51,-10 21,0 39,3 54,10 16,7 28,16 36,29 8,13 13,27 14,44l-35 3c-2,-18 -8,-31 -19,-40 -11,-9 -27,-13 -48,-13 -22,0 -38,4 -49,12 -10,8 -15,18 -15,29 0,10 4,18 11,25 7,6 26,13 55,20 30,7 50,13 62,18 16,7 28,17 36,28 8,11 12,25 12,39 0,15 -4,29 -13,42 -8,13 -21,23 -36,30 -16,7 -34,11 -53,11 -25,0 -46,-4 -63,-11 -17,-7 -30,-18 -40,-33 -10,-15 -15,-31 -15,-50zm339 -11c0,-37 10,-65 31,-83 17,-15 38,-22 63,-22 28,0 50,9 68,27 18,18 26,43 26,75 0,26 -4,46 -12,61 -8,15 -19,26 -34,35 -15,8 -31,12 -49,12 -28,0 -51,-9 -68,-27 -17,-18 -26,-44 -26,-78zm35 0c0,26 6,45 17,58 11,13 25,19 43,19 17,0 31,-6 42,-19 11,-13 17,-32 17,-59 0,-25 -6,-44 -17,-56 -11,-13 -25,-19 -42,-19 -17,0 -31,6 -43,19 -11,13 -17,32 -17,58zm278 101l0 -278 34 0 0 278 -34 0zm304 0l0 -30c-16,23 -37,34 -64,34 -12,0 -23,-2 -33,-7 -10,-5 -18,-10 -23,-17 -5,-7 -8,-15 -10,-25 -1,-7 -2,-17 -2,-32l0 -125 34 0 0 111c0,18 1,30 2,36 2,9 7,16 14,21 7,5 15,8 26,8 10,0 20,-3 29,-8 9,-5 15,-12 19,-21 4,-9 6,-22 6,-39l0 -108 34 0 0 201 -31 0zm244 -30l5 30c-10,2 -18,3 -26,3 -12,0 -22,-2 -29,-6 -7,-4 -12,-9 -14,-15 -3,-6 -4,-20 -4,-40l0 -116 -25 0 0 -26 25 0 0 -50 34 -21 0 70 34 0 0 26 -34 0 0 118c0,10 1,16 2,19 1,3 3,5 6,7 3,2 7,2 12,2 4,0 9,0 15,-1zm119 -209l0 -39 34 0 0 39 -34 0zm0 239l0 -201 34 0 0 201 -34 0zm159 -101c0,-37 10,-65 31,-83 17,-15 38,-22 63,-22 28,0 50,9 68,27 18,18 26,43 26,75 0,26 -4,46 -12,61 -8,15 -19,26 -34,35 -15,8 -31,12 -49,12 -28,0 -51,-9 -68,-27 -17,-18 -26,-44 -26,-78zm35 0c0,26 6,45 17,58 11,13 25,19 43,19 17,0 31,-6 42,-19 11,-13 17,-32 17,-59 0,-25 -6,-44 -17,-56 -11,-13 -25,-19 -42,-19 -17,0 -31,6 -43,19 -11,13 -17,32 -17,58zm279 101l0 -201 31 0 0 29c15,-22 36,-33 64,-33 12,0 23,2 33,7 10,4 18,10 23,17 5,7 9,15 11,25 1,6 2,17 2,33l0 124 -34 0 0 -122c0,-14 -1,-24 -4,-31 -3,-7 -7,-12 -14,-16 -7,-4 -15,-6 -24,-6 -14,0 -27,5 -38,14 -11,9 -16,27 -16,52l0 110 -34 0z"/>
 </g>
</svg>